# xmcd
#
# Track frame offsets:
#  150
#  10657
#  21026
#  33311
#  46887
#  57928
#  71745
#  82564
#  94384
#  106064
#  118806
#  131189
#  141187
#  154333
#  166168
#  177374
#  188650
#  202034
#  215171
#  226717
#  239805
#  252264
#  265075
#  279409
#  289801
#  300843
#  313571
#  325925
#
# Disc length: 4511 seconds
#
# Revision: 0
# Processed by: cddbd v1.5.1PL2 Copyright (c) Steve Scherf et al.
# Submitted via: Collectorz.com_Music_Collector 6.9
#
DISCID=89119d1c
DTITLE=Various Artist - Sick, Sober and Sorry [CD2] - Great Country Hits Of 1952
DYEAR=2004
DGENRE=Country
TTITLE0=The Carlisles - Too Old To Cut The Mustard
TTITLE1=Lefty Frizzell - Give Me More More More (Of Your Kisses)
TTITLE2=Ray Price - Talk To Your Heart
TTITLE3=Webb Pierce - Wondering
TTITLE4=Hank Snow - Music Makin' Mama From Memphis
TTITLE5=Cowboy Copas - 'Tis Sweet To Be Remembered
TTITLE6=Carl Smith - (When You Feel Like You're In Love) Don't Just Stand There
TTITLE7=Hank Williams - Setting The Woods On Fire
TTITLE8=Eddy Arnold - Easy On The Eyes
TTITLE9=Tex Ritter - High Noon
TTITLE10=Hank Thompson - The Wild Side Of Life
TTITLE11=Hank Williams - Honky Tonk Blues
TTITLE12=Webb Pierce - That Heart Belongs To Me
TTITLE13=Carl Smith - Are You Teasing Me
TTITLE14=Tennessee Ernie Ford - Blackberry Boogie
TTITLE15=Eddy Arnold - A Full Time Job
TTITLE16=Lefty Frizzell - Don't Stay Away (Till Love Grows Old)
TTITLE17=George Morgan - Almost
TTITLE18=Kitty Wells - It Wasn't God Who Made Honky Tonk Angels
TTITLE19=Hank Williams - Jambalaya (On The Bayou)
TTITLE20=Webb Pierce - Back Street Affair
TTITLE21=Slim Willet - Don't Let The Stars Get In Your Eyes
TTITLE22=Slim Whitman - Indian Love Call
TTITLE23=Hank Snow - The Goldrush Is Over
TTITLE24=Hank Thompson - Waiting In The Lobby Of Your Heart
TTITLE25=Red Foley and Ernest Tubb - Too Old To Cut The Mustard
TTITLE26=Hank Williams - Half As Much
TTITLE27=Skeets McDonald - Don't Let The Stars Get In Your Eyes
EXTD=
EXTT0=
EXTT1=
EXTT2=
EXTT3=
EXTT4=
EXTT5=
EXTT6=
EXTT7=
EXTT8=
EXTT9=
EXTT10=
EXTT11=
EXTT12=
EXTT13=
EXTT14=
EXTT15=
EXTT16=
EXTT17=
EXTT18=
EXTT19=
EXTT20=
EXTT21=
EXTT22=
EXTT23=
EXTT24=
EXTT25=
EXTT26=
EXTT27=
PLAYORDER=
